<?xml version="1.0" encoding="utf-8"?>
<!-- Generator: Adobe Illustrator 25.4.1, SVG Export Plug-In . SVG Version: 6.00 Build 0)  -->
<svg version="1.1" id="Layer_1" xmlns="http://www.w3.org/2000/svg" xmlns:xlink="http://www.w3.org/1999/xlink" x="0px" y="0px"
	 width="308.5px" height="182.1px" viewBox="0 0 308.5 182.1" style="enable-background:new 0 0 308.5 182.1;" xml:space="preserve"
	>
<style type="text/css">
	.st0{fill:#00B1ED;}
	.st1{fill:#96238E;}
	.st2{fill:#001884;}
	.st3{fill:#FFFFFF;}
</style>
<g>
	<g>
		<rect class="st0" width="173.6" height="169.7"/>
		<rect x="134.8" y="12.5" class="st1" width="173.6" height="169.7"/>
		<polyline class="st2" points="173.6,12.5 134.8,12.5 134.8,169.7 173.6,169.7 173.6,12.5 		"/>
	</g>
	<g>
		<g>
			<path class="st3" d="M86.4,67.7C80.4,61,70.2,56.9,60.1,56.9c-21.6,0-39.2,17.6-39.2,39.2s17.6,39.2,39.2,39.2
				c10.1,0,20.5-4.1,26.3-10.7v8.7h15.9V58.9H86.4V67.7z M60.1,119.5c-12.9,0-23.3-10.5-23.3-23.3s10.5-23.3,23.3-23.3
				s23.3,10.5,23.3,23.3S73,119.5,60.1,119.5z M249.3,56.9c-21.6,0-39.2,17.6-39.2,39.2s17.6,39.2,39.2,39.2s39.2-17.6,39.2-39.2
				S271,56.9,249.3,56.9z M249.3,119.5c-12.9,0-23.3-10.5-23.3-23.3s10.5-23.3,23.3-23.3c12.9,0,23.3,10.5,23.3,23.3
				S262.2,119.5,249.3,119.5z M118.9,133.4h15.9V35.3h-15.9V133.4z M189.5,35.3h-15.9V106c0,15.1,12.3,27.4,27.4,27.4h5.2v-15.9
				h-5.2c-6.4,0-11.6-5.2-11.6-11.6V74.8h16.7V58.9h-16.7V35.3z M145.8,133.4h16.9v-16.9h-16.9V133.4z"/>
		</g>
	</g>
</g>
</svg>
