<?xml version="1.0" encoding="utf-8"?>
<!-- Generator: Adobe Illustrator 24.1.1, SVG Export Plug-In . SVG Version: 6.00 Build 0)  -->
<svg version="1.1"
	 id="svg4177" inkscape:export-filename="C:\Users\satysfakcja\Desktop\alto_logo.png" inkscape:export-xdpi="165.52821" inkscape:export-ydpi="165.52821" inkscape:version="0.91 r13725" sodipodi:docname="alto_logo.svg" xmlns:cc="http://creativecommons.org/ns#" xmlns:dc="http://purl.org/dc/elements/1.1/" xmlns:inkscape="http://www.inkscape.org/namespaces/inkscape" xmlns:rdf="http://www.w3.org/1999/02/22-rdf-syntax-ns#" xmlns:sodipodi="http://sodipodi.sourceforge.net/DTD/sodipodi-0.dtd" xmlns:svg="http://www.w3.org/2000/svg"
	 xmlns="http://www.w3.org/2000/svg" xmlns:xlink="http://www.w3.org/1999/xlink" x="0px" y="0px" viewBox="0 0 543.3 320.8"
	 style="enable-background:new 0 0 543.3 320.8;" xml:space="preserve">
<style type="text/css">
	.st0{fill:#FFFFFF;}
</style>
<sodipodi:namedview  bordercolor="#666666" borderopacity="1.0" fit-margin-bottom="0" fit-margin-left="0" fit-margin-right="0" fit-margin-top="0" id="base" inkscape:current-layer="layer1" inkscape:cx="363.8947" inkscape:cy="132.49038" inkscape:document-units="px" inkscape:pageopacity="0.0" inkscape:pageshadow="2" inkscape:window-height="1377" inkscape:window-maximized="1" inkscape:window-width="2560" inkscape:window-x="-8" inkscape:window-y="-8" inkscape:zoom="1.4" pagecolor="#ffffff" showgrid="false" units="px">
	</sodipodi:namedview>
<path class="st0" d="M291.1,14v20H507v271.8H228.9v-20v0H13V14H291.1 M305.1,0h-14H13H-1v14v271.8v14h14h202v6v14h14H507h14v-14
	V33.9V20h-14h-202v-6V0L305.1,0z M151.4,122.3c-9.7-10.6-26-17.2-42.2-17.2c-34.7,0-62.9,28.2-62.9,62.9c0,34.7,28.2,62.9,62.9,62.9
	c16.2,0,32.9-6.6,42.2-17.2v14h25.5V108.3h-25.5V122.3z M109.3,205.4c-20.6,0-37.4-16.8-37.4-37.4s16.8-37.4,37.4-37.4
	c20.6,0,37.4,16.8,37.4,37.4S129.9,205.4,109.3,205.4z M412.3,105.1c-34.7,0-62.9,28.2-62.9,62.9c0,34.7,28.2,62.9,62.9,62.9
	c34.7,0,62.9-28.2,62.9-62.9C475.2,133.3,447,105.1,412.3,105.1z M412.3,205.4c-20.6,0-37.4-16.8-37.4-37.4s16.8-37.4,37.4-37.4
	c20.6,0,37.4,16.8,37.4,37.4S433,205.4,412.3,205.4z M203.4,227.7h25.5V70.5h-25.5V227.7z M316.6,70.5h-25.5v113.2
	c0,24.2,19.7,44,44,44h8.3v-25.5h-8.3c-10.2,0-18.5-8.3-18.5-18.5v-49.9h26.8v-25.5h-26.8V70.5z M246.5,227.7h27.1v-27.1h-27.1
	V227.7z"/>
</svg>
